<svg width="63" height="64" viewBox="0 0 63 64" fill="none" xmlns="http://www.w3.org/2000/svg">
<path d="M45.2812 16C45.8034 16 46.3042 16.2107 46.6734 16.5858C47.0426 16.9609 47.25 17.4696 47.25 18V20H51.2663C52.1512 20.0008 53.0246 20.2036 53.822 20.5934C54.6194 20.9832 55.3204 21.55 55.8731 22.252L61.7046 29.652C62.5436 30.7167 63.0005 32.0401 63 33.404V42C63 43.5913 62.3777 45.1174 61.2701 46.2426C60.1625 47.3679 58.6602 48 57.0938 48H55.125C55.125 50.1217 54.2953 52.1566 52.8185 53.6569C51.3416 55.1571 49.3386 56 47.25 56C45.1614 56 43.1584 55.1571 41.6815 53.6569C40.2047 52.1566 39.375 50.1217 39.375 48H19.6875C19.6875 50.1217 18.8578 52.1566 17.381 53.6569C15.9041 55.1571 13.9011 56 11.8125 56C9.72392 56 7.72088 55.1571 6.24403 53.6569C4.76719 52.1566 3.9375 50.1217 3.9375 48C2.89321 48 1.89169 47.5786 1.15327 46.8284C0.414843 46.0783 0 45.0609 0 44V40H43.3125V18C43.3125 17.4696 43.5199 16.9609 43.8891 16.5858C44.2583 16.2107 44.7591 16 45.2812 16ZM11.8125 44C10.7682 44 9.76669 44.4214 9.02827 45.1716C8.28984 45.9217 7.875 46.9391 7.875 48C7.875 49.0609 8.28984 50.0783 9.02827 50.8284C9.76669 51.5786 10.7682 52 11.8125 52C12.8568 52 13.8583 51.5786 14.5967 50.8284C15.3352 50.0783 15.75 49.0609 15.75 48C15.75 46.9391 15.3352 45.9217 14.5967 45.1716C13.8583 44.4214 12.8568 44 11.8125 44ZM47.25 44C46.2057 44 45.2042 44.4214 44.4658 45.1716C43.7273 45.9217 43.3125 46.9391 43.3125 48C43.3125 49.0609 43.7273 50.0783 44.4658 50.8284C45.2042 51.5786 46.2057 52 47.25 52C48.2943 52 49.2958 51.5786 50.0342 50.8284C50.7727 50.0783 51.1875 49.0609 51.1875 48C51.1875 46.9391 50.7727 45.9217 50.0342 45.1716C49.2958 44.4214 48.2943 44 47.25 44ZM54.0698 44H57.0938C57.6159 44 58.1167 43.7893 58.4859 43.4142C58.8551 43.0391 59.0625 42.5304 59.0625 42V33.4C59.0617 32.9461 58.909 32.506 58.6294 32.152L52.8019 24.752C52.6177 24.5178 52.3841 24.3286 52.1183 24.1984C51.8525 24.0682 51.5613 24.0004 51.2663 24H47.25V40C48.6323 40 49.9903 40.3697 51.1874 41.0718C52.3845 41.774 53.3786 42.7839 54.0698 44Z" fill="#699BF7"/>
</svg>
