<svg width="363" height="121" viewBox="0 0 363 121" fill="none" xmlns="http://www.w3.org/2000/svg">
<rect x="330.371" y="82.0486" width="32.2083" height="23.5457" rx="5" fill="#7183E6"/>
<path d="M347.267 114.269L344.523 104.975H350.01L347.267 114.269Z" fill="#7183E6"/>
<rect x="263.238" y="87.8455" width="32.2083" height="23.5457" rx="5" fill="#7183E6"/>
<path d="M280.134 120.066L277.39 110.772H282.877L280.134 120.066Z" fill="#7183E6"/>
<rect x="202.399" y="45.8177" width="32.2083" height="23.5457" rx="5" fill="#7183E6"/>
<rect x="95" width="32.2083" height="23.5457" rx="5" fill="#7183E6"/>
<path d="M219.295 78.0381L216.551 68.7438H222.038L219.295 78.0381Z" fill="#7183E6"/>
<rect x="146.804" y="74.8024" width="32.2083" height="23.5457" rx="5" fill="#7183E6"/>
<path d="M163.701 107.023L160.957 97.7284H166.444L163.701 107.023Z" fill="#7183E6"/>
<rect y="51" width="32.2083" height="23.5457" rx="5" fill="#7183E6"/>
<path d="M16.8959 83.2204L14.1523 73.9261H19.6395L16.8959 83.2204Z" fill="#7183E6"/>
</svg>
