<svg width="48" height="45" viewBox="0 0 48 45" fill="none" xmlns="http://www.w3.org/2000/svg">
<g clip-path="url(#clip0_0_423)">
<path fill-rule="evenodd" clip-rule="evenodd" d="M26.304 1.27873C26.9926 0.901812 27.7756 0.703186 28.573 0.703186C29.3704 0.703186 30.1534 0.901812 30.842 1.27873L30.856 1.28623L44.77 9.30373C45.4554 9.67999 46.024 10.2178 46.419 10.8639C46.8141 11.5099 47.022 12.2416 47.022 12.9862V27.0787C47.022 28.5975 46.158 30.0037 44.756 30.7687L44.752 30.7706L20.824 43.965L20.816 43.9706C20.1221 44.348 19.3342 44.5467 18.532 44.5467C17.7298 44.5467 16.9419 44.348 16.248 43.9706L16.196 43.9425L3.19 35.5012C2.52075 35.1225 1.96726 34.5881 1.5832 33.9498C1.19914 33.3115 0.997557 32.591 0.998002 31.8581V17.6962C0.998002 16.9612 1.198 16.2525 1.566 15.6337L1.572 15.6225L1.6 15.5737C1.99427 14.9325 2.55937 14.3982 3.24 14.0231H3.244L26.304 1.27686V1.27873ZM27.818 3.70686H27.816L5.296 16.155L17.792 24.1181C18.0253 24.2368 18.2872 24.2974 18.5526 24.2941C18.818 24.2908 19.0781 24.2238 19.308 24.0994H19.31L42.576 11.3419L29.318 3.70311C29.0894 3.58054 28.8305 3.51653 28.5672 3.51752C28.3039 3.51851 28.0455 3.58445 27.818 3.70873V3.70686ZM36 18.2044L29.5 21.7669V35.9194L36 32.3344V18.2044ZM39 16.5581V30.6806L43.248 28.3369C43.4831 28.2089 43.6783 28.0254 43.8142 27.8047C43.95 27.5839 44.0216 27.3336 44.022 27.0787V13.8056L39 16.5581ZM20.82 26.5256L26.5 23.4131V37.5731L20.034 41.1394V26.8669C20.302 26.7787 20.564 26.6662 20.816 26.5294L20.82 26.5256ZM17.034 41.0644V26.8687C16.7612 26.7799 16.498 26.6668 16.248 26.5312L16.202 26.505L3.998 18.7294V31.86C3.998 32.3756 4.288 32.85 4.756 33.105L4.806 33.1312L17.034 41.0662V41.0644Z" fill="#699BF7"/>
</g>
<defs>
<clipPath id="clip0_0_423">
<rect width="48" height="45" fill="white"/>
</clipPath>
</defs>
</svg>
