<svg width="14" height="12" viewBox="0 0 14 12" fill="none" xmlns="http://www.w3.org/2000/svg">
<path d="M13.6063 10.6751L10.3193 7.85829C11.1645 7.0305 11.6275 5.98897 11.6275 4.90469C11.6275 2.37139 9.12606 0.310303 6.05144 0.310303C2.97683 0.310303 0.475342 2.37139 0.475342 4.90469C0.475342 7.438 2.97683 9.49909 6.05144 9.49909C7.2057 9.49909 8.30564 9.21224 9.24607 8.6677L12.558 11.5058C12.6965 11.6243 12.8827 11.6896 13.0822 11.6896C13.271 11.6896 13.4502 11.6303 13.5862 11.5224C13.8752 11.2933 13.8844 10.9134 13.6063 10.6751ZM6.05144 1.50884C8.32407 1.50884 10.1729 3.03218 10.1729 4.90469C10.1729 6.77721 8.32407 8.30055 6.05144 8.30055C3.77882 8.30055 1.92998 6.77721 1.92998 4.90469C1.92998 3.03218 3.77882 1.50884 6.05144 1.50884Z" fill="#6F83E6"/>
</svg>
