<svg width="13" height="12" viewBox="0 0 13 12" fill="none" xmlns="http://www.w3.org/2000/svg">
<path d="M12.0701 10.6751L9.27715 7.85835C9.99528 7.03056 10.3887 5.98903 10.3887 4.90476C10.3887 2.37145 8.26321 0.310364 5.65067 0.310364C3.03814 0.310364 0.912598 2.37145 0.912598 4.90476C0.912598 7.43806 3.03814 9.49915 5.65067 9.49915C6.63145 9.49915 7.56609 9.2123 8.36518 8.66776L11.1794 11.5059C11.297 11.6244 11.4552 11.6897 11.6248 11.6897C11.7852 11.6897 11.9375 11.6303 12.0531 11.5225C12.2986 11.2934 12.3064 10.9134 12.0701 10.6751ZM5.65067 1.5089C7.58175 1.5089 9.15273 3.03224 9.15273 4.90476C9.15273 6.77727 7.58175 8.30061 5.65067 8.30061C3.7196 8.30061 2.14862 6.77727 2.14862 4.90476C2.14862 3.03224 3.7196 1.5089 5.65067 1.5089Z" fill="#6F83E6"/>
</svg>
