<svg width="14" height="12" viewBox="0 0 14 12" fill="none" xmlns="http://www.w3.org/2000/svg">
<path d="M13.6066 10.6751L10.3196 7.85829C11.1647 7.0305 11.6278 5.98897 11.6278 4.90469C11.6278 2.37139 9.1263 0.310303 6.05169 0.310303C2.97707 0.310303 0.475586 2.37139 0.475586 4.90469C0.475586 7.438 2.97707 9.49909 6.05169 9.49909C7.20594 9.49909 8.30589 9.21224 9.24631 8.6677L12.5583 11.5058C12.6967 11.6243 12.8829 11.6896 13.0824 11.6896C13.2713 11.6896 13.4504 11.6303 13.5865 11.5224C13.8754 11.2933 13.8847 10.9134 13.6066 10.6751ZM6.05169 1.50884C8.32431 1.50884 10.1732 3.03218 10.1732 4.90469C10.1732 6.77721 8.32431 8.30055 6.05169 8.30055C3.77906 8.30055 1.93022 6.77721 1.93022 4.90469C1.93022 3.03218 3.77906 1.50884 6.05169 1.50884Z" fill="#6F83E6"/>
</svg>
