<svg width="13" height="12" viewBox="0 0 13 12" fill="none" xmlns="http://www.w3.org/2000/svg">
<path d="M12.0701 10.6751L9.27715 7.85829C9.99528 7.0305 10.3887 5.98897 10.3887 4.90469C10.3887 2.37139 8.26321 0.310303 5.65067 0.310303C3.03814 0.310303 0.912598 2.37139 0.912598 4.90469C0.912598 7.438 3.03814 9.49909 5.65067 9.49909C6.63145 9.49909 7.56609 9.21224 8.36518 8.6677L11.1794 11.5058C11.297 11.6243 11.4552 11.6896 11.6248 11.6896C11.7852 11.6896 11.9375 11.6303 12.0531 11.5224C12.2986 11.2933 12.3064 10.9134 12.0701 10.6751ZM5.65067 1.50884C7.58175 1.50884 9.15273 3.03218 9.15273 4.90469C9.15273 6.77721 7.58175 8.30055 5.65067 8.30055C3.7196 8.30055 2.14862 6.77721 2.14862 4.90469C2.14862 3.03218 3.7196 1.50884 5.65067 1.50884Z" fill="#6F83E6"/>
</svg>
