<svg width="12" height="12" viewBox="0 0 12 12" fill="none" xmlns="http://www.w3.org/2000/svg">
<path d="M11.1575 10.3647L8.36456 7.54799C9.08268 6.7202 9.47615 5.67867 9.47615 4.59439C9.47615 2.06108 7.35061 0 4.73808 0C2.12554 0 0 2.06108 0 4.59439C0 7.1277 2.12554 9.18878 4.73808 9.18878C5.71886 9.18878 6.65349 8.90194 7.45258 8.3574L10.2668 11.1955C10.3844 11.314 10.5426 11.3793 10.7122 11.3793C10.8726 11.3793 11.0249 11.32 11.1405 11.2121C11.386 10.983 11.3938 10.6031 11.1575 10.3647ZM4.73808 1.19854C6.66915 1.19854 8.24013 2.72188 8.24013 4.59439C8.24013 6.46691 6.66915 7.99025 4.73808 7.99025C2.807 7.99025 1.23602 6.46691 1.23602 4.59439C1.23602 2.72188 2.807 1.19854 4.73808 1.19854Z" fill="#6F83E6"/>
</svg>
